<svg width="16" height="16" viewBox="0 0 16 16" fill="none" xmlns="http://www.w3.org/2000/svg">
<g id="fi-br-call-history" clip-path="url(#clip0_1_900)">
<path id="Vector" d="M11.6667 16.0001C6.23401 16.1534 -3.38465 6.52344 1.24201 1.2921C1.25868 1.2761 1.96935 0.656104 1.96935 0.656104C2.4093 0.230797 2.99871 -0.00466487 3.61061 0.000447761C4.2225 0.00556039 4.8079 0.250838 5.24068 0.683438L6.67601 2.22944C7.09842 2.67106 7.332 3.25996 7.32714 3.87105C7.32229 4.48213 7.07938 5.06725 6.65001 5.50211L6.39068 5.76477C7.1615 7.47068 8.52493 8.83908 10.228 9.61611L10.5013 9.34944C10.9456 8.92586 11.5359 8.68956 12.1497 8.68956C12.7635 8.68956 13.3538 8.92586 13.798 9.34944L15.29 10.7334C15.7326 11.1645 15.9867 11.7532 15.9968 12.371C16.007 12.9887 15.7723 13.5854 15.344 14.0308C15.344 14.0308 14.724 14.7421 14.708 14.7588C14.3082 15.1564 13.8336 15.4708 13.3116 15.6839C12.7896 15.8969 12.2305 16.0044 11.6667 16.0001ZM2.63335 2.73344C-0.606652 6.74477 9.76201 16.5154 13.27 13.3668C13.27 13.3668 13.886 12.6608 13.9027 12.6441C13.935 12.614 13.9608 12.5776 13.9785 12.5371C13.9961 12.4966 14.0052 12.4529 14.0052 12.4088C14.0052 12.3646 13.9961 12.3209 13.9785 12.2804C13.9608 12.2399 13.935 12.2035 13.9027 12.1734L12.4107 10.7908C12.2107 10.6241 12.0987 10.6221 11.912 10.7641L11.1553 11.5088C11.0187 11.6432 10.8464 11.7355 10.6588 11.7747C10.4713 11.8139 10.2764 11.7985 10.0973 11.7301C8.76717 11.2353 7.55892 10.4604 6.55452 9.45769C5.55012 8.45502 4.77306 7.2481 4.27601 5.91877C4.20345 5.73828 4.18511 5.54053 4.22324 5.34977C4.26137 5.15901 4.35431 4.98351 4.49068 4.84477L5.23001 4.09344C5.26371 4.06373 5.2908 4.0273 5.30955 3.98647C5.32829 3.94565 5.33827 3.90135 5.33883 3.85644C5.3394 3.81152 5.33054 3.76699 5.31283 3.7257C5.29512 3.68442 5.26895 3.64731 5.23601 3.61677L3.80001 2.07077C3.73561 2.0194 3.65446 1.9937 3.57223 1.99862C3.48999 2.00354 3.41249 2.03875 3.35468 2.09744C3.33935 2.1141 2.63335 2.73344 2.63335 2.73344ZM15.7667 7.28877C16.0496 6.31016 16.0649 5.27358 15.811 4.28704C15.5571 3.30051 15.0432 2.40014 14.3229 1.67978C13.6026 0.959425 12.7023 0.445442 11.7157 0.191404C10.7292 -0.0626343 9.69265 -0.0474281 8.71402 0.235438C8.58817 0.272996 8.47094 0.334974 8.36905 0.417834C8.26715 0.500694 8.18257 0.602812 8.12014 0.718359C8.05771 0.833907 8.01864 0.960619 8.00518 1.09126C7.99172 1.22191 8.00412 1.35392 8.04168 1.47977C8.07924 1.60562 8.14122 1.72284 8.22408 1.82474C8.30694 1.92664 8.40906 2.01122 8.5246 2.07365C8.64015 2.13608 8.76686 2.17514 8.89751 2.1886C9.02815 2.20206 9.16016 2.18966 9.28601 2.1521C9.91886 1.97118 10.5886 1.96283 11.2258 2.1279C11.8629 2.29298 12.4443 2.62548 12.9097 3.09093C13.3751 3.55639 13.7075 4.13785 13.8725 4.77504C14.0375 5.41223 14.029 6.08195 13.848 6.71477C13.8105 6.84066 13.7982 6.97271 13.8117 7.10337C13.8253 7.23403 13.8644 7.36075 13.927 7.47627C13.9895 7.59179 14.0742 7.69386 14.1762 7.77665C14.2781 7.85944 14.3954 7.92133 14.5213 7.95877C14.6142 7.98615 14.7105 8.00007 14.8073 8.00011C15.0226 7.99987 15.232 7.9302 15.4045 7.80144C15.5769 7.67269 15.7033 7.49172 15.7647 7.28544L15.7667 7.28877ZM12.0427 7.37744C12.1356 7.28457 12.2093 7.1743 12.2596 7.05294C12.3099 6.93157 12.3358 6.80148 12.3358 6.6701C12.3358 6.53873 12.3099 6.40864 12.2596 6.28727C12.2093 6.16591 12.1356 6.05564 12.0427 5.96277L11.3333 5.25277V4.33344C11.3333 4.06822 11.228 3.81387 11.0405 3.62633C10.8529 3.43879 10.5986 3.33344 10.3333 3.33344C10.0681 3.33344 9.81378 3.43879 9.62624 3.62633C9.4387 3.81387 9.33335 4.06822 9.33335 4.33344V5.66677C9.33329 5.79812 9.3591 5.92819 9.40932 6.04955C9.45954 6.17092 9.53317 6.2812 9.62601 6.3741L10.626 7.3741C10.7189 7.46703 10.8291 7.54075 10.9505 7.59104C11.0719 7.64134 11.202 7.66723 11.3333 7.66723C11.4647 7.66723 11.5948 7.64134 11.7162 7.59104C11.8375 7.54075 11.9478 7.46703 12.0407 7.3741L12.0427 7.37744Z" fill="#1C1B1F"/>
</g>
<defs>
<clipPath id="clip0_1_900">
<rect width="16" height="16" fill="white"/>
</clipPath>
</defs>
</svg>
